# Blender v2.78 (sub 0) OBJ File: 'MahjongTile_improved.blend'
# www.blender.org
o Tile_low_Cube.001
v 0.037500 0.045000 -0.014000
v 0.032500 -0.050000 -0.014000
v -0.037500 -0.045000 -0.014000
v -0.032500 0.050000 -0.014000
v 0.037500 -0.045000 -0.014000
v -0.032500 -0.050000 -0.014000
v -0.032500 0.050000 0.014000
v -0.032500 -0.050000 0.014000
v 0.032500 0.050000 0.014000
v -0.036250 0.045000 -0.014875
v 0.032500 0.048750 -0.014875
v 0.036250 -0.045000 -0.014875
v -0.032500 -0.048750 -0.014875
v 0.037500 -0.045000 0.014000
v 0.036250 0.048750 -0.014000
v 0.036250 -0.048750 -0.014000
v -0.036250 -0.048750 -0.014000
v -0.036250 0.048750 -0.014000
v 0.032500 0.048750 0.014875
v 0.036250 -0.045000 0.014875
v -0.032500 -0.048750 0.014875
v -0.036250 -0.045000 -0.014875
v 0.036250 0.045000 -0.014875
v -0.037500 -0.045000 0.014000
v -0.036250 -0.045000 0.014875
v -0.036250 0.045000 0.014875
v 0.036250 0.045000 0.014875
v -0.037500 0.045000 -0.014000
v -0.036250 -0.048750 0.014000
v -0.032500 0.048750 -0.014875
v 0.032500 -0.048750 -0.014875
v 0.032500 -0.050000 0.014000
v -0.032500 0.048750 0.014875
v 0.032500 -0.048750 0.014875
v 0.032500 0.050000 -0.014000
v -0.036250 0.048750 0.014000
v 0.037500 0.045000 0.014000
v -0.035278 -0.047778 -0.014778
v -0.035278 0.047778 -0.014778
v 0.035278 0.047778 -0.014778
v 0.035278 -0.047778 -0.014778
v 0.036250 0.048750 0.014000
v 0.036250 -0.048750 0.014000
v -0.035278 -0.047778 0.014778
v -0.035278 0.047778 0.014778
v 0.035278 0.047778 0.014778
v 0.035278 -0.047778 0.014778
v -0.037500 0.045000 0.014000
v -0.010882 0.049401 -0.013237
v -0.011110 -0.005120 0.017302
vt 0.4494 0.0000
vt 0.4338 0.0114
vt 0.4284 0.0064
vt 0.8427 0.0256
vt 0.8302 0.0114
vt 0.8357 0.0064
vt 0.8146 0.5128
vt 0.8302 0.5014
vt 0.8357 0.5064
vt 0.4213 0.0256
vt 0.4284 0.0256
vt 0.8427 0.4872
vt 0.8357 0.0256
vt 1.0000 0.9808
vt 0.8427 0.5192
vt 1.0000 0.5192
vt 0.8146 0.0000
vt 0.8146 0.0064
vt 0.3933 0.0000
vt 0.4089 0.0114
vt 0.3933 0.0064
vt 0.4213 0.4872
vt 0.4338 0.5014
vt 0.4284 0.5064
vt 0.1573 0.5128
vt 0.3146 0.5321
vt 0.1573 0.5321
vt 0.4494 0.5128
vt 0.4494 0.5064
vt 0.8357 0.4872
vt 0.0281 0.0000
vt 0.0125 0.0114
vt 0.0070 0.0064
vt 0.3146 0.8654
vt 0.1573 0.8654
vt 0.3933 0.5128
vt 0.4089 0.5014
vt 0.4143 0.5064
vt 0.1573 0.8846
vt 0.0281 0.5128
vt 0.0125 0.5014
vt 0.0281 0.5064
vt 0.8146 0.5064
vt 0.4213 0.4872
vt 0.4143 0.4872
vt 0.8427 0.0192
vt 1.0000 0.4808
vt 0.8427 0.4808
vt 0.8427 0.5000
vt 0.0000 0.0256
vt 0.0070 0.4872
vt 0.0000 0.4872
vt 0.8427 0.0000
vt 1.0000 0.0192
vt 1.0000 1.0000
vt 0.8427 0.9808
vt 0.0070 0.0256
vt 0.0000 0.8654
vt 0.1573 0.5321
vt 0.1573 0.8654
vt 0.3933 0.5064
vt 0.1573 0.8846
vt 0.4213 0.0256
vt 0.4143 0.0064
vt 0.0070 0.5064
vt 0.0000 0.5321
vt 0.1573 0.5128
vt 0.4143 0.0256
vt 1.0000 0.5000
vt 0.4494 0.0064
vt 0.4284 0.4872
vt 0.3146 0.5128
vt 0.0281 0.0064
vt 0.3146 0.8846
vt 1.0000 0.5000
vt 1.0000 0.0000
vt 0.8427 1.0000
vt 0.0000 0.8846
vt 0.0000 0.5128
vt 0.8427 0.5000
vn 0.1451 -0.8838 -0.4448
vn 0.2532 -0.2532 -0.9337
vn 0.6315 -0.6315 -0.4498
vn -0.8838 -0.1451 -0.4448
vn -0.2532 -0.2532 -0.9337
vn -0.6315 -0.6315 -0.4498
vn -0.1451 0.8838 -0.4448
vn -0.2532 0.2532 -0.9337
vn -0.6315 0.6315 -0.4498
vn 0.8838 -0.1451 -0.4448
vn 0.3299 -0.0733 -0.9412
vn -0.8838 0.1451 -0.4448
vn -0.3299 -0.0733 -0.9412
vn 0.8838 0.1451 -0.4448
vn 0.8838 -0.1451 0.4448
vn -0.1451 -0.8838 -0.4448
vn -0.0733 -0.3299 -0.9412
vn -0.1451 0.8838 0.4448
vn -0.2532 0.2532 0.9337
vn -0.0733 0.3299 0.9412
vn 0.2532 0.2532 -0.9337
vn 0.6315 0.6315 -0.4498
vn 0.1451 -0.8838 0.4448
vn 0.1451 0.8838 -0.4448
vn 0.0733 0.3299 -0.9412
vn -0.3299 0.0733 -0.9412
vn 0.1451 0.8838 0.4448
vn 0.2532 0.2532 0.9337
vn 0.6315 0.6315 0.4498
vn -0.1451 -0.8838 0.4448
vn -0.2532 -0.2532 0.9337
vn -0.6315 -0.6315 0.4498
vn 0.2532 -0.2532 0.9337
vn 0.0733 -0.3299 0.9412
vn -0.0733 0.3299 -0.9412
vn -0.8838 -0.1451 0.4448
vn -0.3299 -0.0733 0.9412
vn -0.8838 0.1451 0.4448
vn 0.8838 0.1451 0.4448
vn 0.3299 -0.0733 0.9412
vn 0.3299 0.0733 0.9412
vn -0.0733 -0.3299 0.9412
vn -0.6315 0.6315 0.4498
vn 0.6315 -0.6315 0.4498
vn -0.3299 0.0733 0.9412
vn 0.0733 -0.3299 -0.9412
vn 0.3299 0.0733 -0.9412
vn 0.0733 0.3299 0.9412
s 1
f 2/1/1 41/2/2 16/3/3
f 3/4/4 38/5/5 17/6/6
f 4/7/7 39/8/8 18/9/9
f 5/10/10 41/2/2 12/11/11
f 28/12/12 22/13/13 3/4/4
f 1/14/14 14/15/15 5/16/10
f 6/17/16 38/5/5 13/18/17
f 7/19/18 45/20/19 33/21/20
f 1/22/14 40/23/21 15/24/22
f 16/25/3 32/26/23 2/27/1
f 35/28/24 40/23/21 11/29/25
f 10/30/26 12/11/11 22/13/13
f 9/31/27 46/32/28 42/33/29
f 2/27/1 8/34/30 6/35/16
f 8/36/30 44/37/31 29/38/32
f 12/11/11 1/22/14 5/10/10
f 8/34/30 17/39/6 6/35/16
f 32/40/23 47/41/33 34/42/34
f 35/28/24 30/43/35 4/7/7
f 24/44/36 44/37/31 25/45/37
f 3/46/4 48/47/38 28/48/12
f 48/47/38 18/49/9 28/48/12
f 37/50/39 20/51/40 14/52/15
f 17/53/6 24/54/36 3/46/4
f 15/55/22 37/56/39 1/14/14
f 37/50/39 46/32/28 27/57/41
f 7/58/18 35/59/24 4/60/7
f 32/40/23 21/61/42 8/36/30
f 18/62/9 7/58/18 4/60/7
f 48/63/38 45/20/19 36/64/43
f 25/45/37 48/63/38 24/44/36
f 14/52/15 47/41/33 43/65/44
f 9/66/27 15/67/22 35/59/24
f 33/21/20 9/31/27 7/19/18
f 28/12/12 39/8/8 10/30/26
f 13/18/17 2/1/1 6/17/16
f 27/57/41 33/21/20 26/68/45
f 14/15/15 16/69/3 5/16/10
f 2/1/1 31/70/46 41/2/2
f 3/4/4 22/13/13 38/5/5
f 4/7/7 30/43/35 39/8/8
f 5/10/10 16/3/3 41/2/2
f 28/12/12 10/30/26 22/13/13
f 1/14/14 37/56/39 14/15/15
f 6/17/16 17/6/6 38/5/5
f 7/19/18 36/64/43 45/20/19
f 1/22/14 23/71/47 40/23/21
f 16/25/3 43/72/44 32/26/23
f 35/28/24 15/24/22 40/23/21
f 31/70/46 13/18/17 22/13/13
f 38/5/5 22/13/13 13/18/17
f 10/30/26 39/8/8 30/43/35
f 30/43/35 11/29/25 23/71/47
f 40/23/21 23/71/47 11/29/25
f 12/11/11 41/2/2 31/70/46
f 31/70/46 22/13/13 12/11/11
f 10/30/26 30/43/35 23/71/47
f 23/71/47 12/11/11 10/30/26
f 9/31/27 19/73/48 46/32/28
f 2/27/1 32/26/23 8/34/30
f 8/36/30 21/61/42 44/37/31
f 12/11/11 23/71/47 1/22/14
f 8/34/30 29/74/32 17/39/6
f 32/40/23 43/65/44 47/41/33
f 35/28/24 11/29/25 30/43/35
f 24/44/36 29/38/32 44/37/31
f 3/46/4 24/54/36 48/47/38
f 48/47/38 36/75/43 18/49/9
f 37/50/39 27/57/41 20/51/40
f 17/53/6 29/76/32 24/54/36
f 15/55/22 42/77/29 37/56/39
f 37/50/39 42/33/29 46/32/28
f 7/58/18 9/66/27 35/59/24
f 32/40/23 34/42/34 21/61/42
f 18/62/9 36/78/43 7/58/18
f 48/63/38 26/68/45 45/20/19
f 25/45/37 26/68/45 48/63/38
f 14/52/15 20/51/40 47/41/33
f 9/66/27 42/79/29 15/67/22
f 33/21/20 19/73/48 9/31/27
f 28/12/12 18/9/9 39/8/8
f 13/18/17 31/70/46 2/1/1
f 26/68/45 25/45/37 20/51/40
f 44/37/31 21/61/42 25/45/37
f 34/42/34 47/41/33 20/51/40
f 20/51/40 27/57/41 26/68/45
f 46/32/28 19/73/48 27/57/41
f 33/21/20 45/20/19 26/68/45
f 25/45/37 21/61/42 34/42/34
f 34/42/34 20/51/40 25/45/37
f 19/73/48 33/21/20 27/57/41
f 14/15/15 43/80/44 16/69/3
