# Blender v2.78 (sub 0) OBJ File: 'MahjongTile_improved.blend'
# www.blender.org
o Tile_Cube.001
v 0.037500 0.045000 -0.014000
v 0.032500 -0.050000 -0.014000
v -0.037500 -0.045000 -0.014000
v -0.032500 0.050000 -0.014000
v 0.037500 -0.045000 -0.014000
v -0.032500 -0.050000 -0.014000
v -0.032500 0.050000 0.014000
v -0.032500 -0.050000 0.014000
v 0.032500 0.050000 0.014000
v -0.036250 0.045000 -0.014875
v 0.032500 0.048750 -0.014875
v 0.036250 -0.045000 -0.014875
v -0.032500 -0.048750 -0.014875
v 0.037500 -0.045000 0.014000
v 0.036250 0.048750 -0.014000
v 0.036250 -0.048750 -0.014000
v -0.036250 -0.048750 -0.014000
v -0.036250 0.048750 -0.014000
v 0.032500 0.048750 0.014875
v 0.036250 -0.045000 0.014875
v -0.032500 -0.048750 0.014875
v -0.036250 -0.045000 -0.014875
v 0.036250 0.045000 -0.014875
v -0.037500 -0.045000 0.014000
v -0.036250 -0.045000 0.014875
v -0.036250 0.045000 0.014875
v 0.036250 0.045000 0.014875
v -0.037500 0.045000 -0.014000
v -0.036250 -0.048750 0.014000
v -0.032500 0.048750 -0.014875
v 0.032500 -0.048750 -0.014875
v 0.032500 -0.050000 0.014000
v -0.032500 0.048750 0.014875
v 0.032500 -0.048750 0.014875
v 0.032500 0.050000 -0.014000
v -0.036250 0.048750 0.014000
v 0.037500 0.045000 0.014000
v -0.035278 -0.047778 -0.014778
v -0.035278 0.047778 -0.014778
v 0.035278 0.047778 -0.014778
v 0.035278 -0.047778 -0.014778
v 0.036250 0.048750 0.014000
v 0.036250 -0.048750 0.014000
v -0.035278 -0.047778 0.014778
v -0.035278 0.047778 0.014778
v 0.035278 0.047778 0.014778
v 0.035278 -0.047778 0.014778
v -0.037500 0.045000 0.014000
v -0.010882 0.049401 -0.013237
v -0.011110 -0.005120 0.017302
vt 0.9587 0.3367
vt 0.9769 0.3513
vt 0.9833 0.3449
vt 0.5004 0.3695
vt 0.5149 0.3513
vt 0.5086 0.3449
vt 0.5331 0.9915
vt 0.5149 0.9770
vt 0.5086 0.9833
vt 0.9915 0.3695
vt 0.9833 0.3695
vt 0.5004 0.9588
vt 0.5086 0.3695
vt 0.6273 0.0147
vt 0.0380 0.1981
vt 0.0380 0.0147
vt 0.5331 0.3367
vt 0.5331 0.3449
vt 0.0385 0.9913
vt 0.0203 0.9767
vt 0.0385 0.9831
vt 0.9915 0.9588
vt 0.9769 0.9770
vt 0.9833 0.9833
vt 0.4882 0.0147
vt 0.4636 0.1981
vt 0.4636 0.0147
vt 0.9587 0.9915
vt 0.9587 0.9833
vt 0.5086 0.9588
vt 0.4641 0.9913
vt 0.4823 0.9767
vt 0.4887 0.9831
vt 0.0380 0.1981
vt 0.0380 0.0147
vt 0.0385 0.3365
vt 0.0203 0.3510
vt 0.0140 0.3447
vt 0.0135 0.0147
vt 0.4641 0.3365
vt 0.4823 0.3510
vt 0.4641 0.3447
vt 0.5331 0.9833
vt 0.0058 0.3692
vt 0.0140 0.3692
vt 0.0380 0.0147
vt 0.6273 0.1981
vt 0.6273 0.0147
vt 0.6519 0.0147
vt 0.4969 0.9585
vt 0.4887 0.3692
vt 0.4969 0.3692
vt 0.0380 0.1981
vt 0.6519 0.0147
vt 0.6273 0.1981
vt 0.4887 0.9585
vt 0.0380 0.1981
vt 0.4636 0.0147
vt 0.0380 0.0147
vt 0.0385 0.3447
vt 0.0135 0.0147
vt 0.0058 0.9585
vt 0.0140 0.9831
vt 0.4887 0.3447
vt 0.4636 0.1981
vt 0.4882 0.0147
vt 0.0140 0.9585
vt 0.0135 0.0147
vt 0.9587 0.3449
vt 0.9833 0.9588
vt 0.4882 0.1981
vt 0.4641 0.9831
vt 0.0135 0.1981
vt 0.6519 0.1981
vt 0.6519 0.1981
vt 0.0135 0.1981
vt 0.4882 0.1981
vt 0.0135 0.1981
vn 0.1451 -0.8838 -0.4448
vn 0.2532 -0.2532 -0.9337
vn 0.6315 -0.6315 -0.4498
vn -0.8838 -0.1451 -0.4448
vn -0.2532 -0.2532 -0.9337
vn -0.6315 -0.6315 -0.4498
vn -0.1451 0.8838 -0.4448
vn -0.2532 0.2532 -0.9337
vn -0.6315 0.6315 -0.4498
vn 0.8838 -0.1451 -0.4448
vn 0.3299 -0.0733 -0.9412
vn -0.8838 0.1451 -0.4448
vn -0.3299 -0.0733 -0.9412
vn 0.8838 0.1451 -0.4448
vn 0.8838 -0.1451 0.4448
vn -0.1451 -0.8838 -0.4448
vn -0.0733 -0.3299 -0.9412
vn -0.1451 0.8838 0.4448
vn -0.2532 0.2532 0.9337
vn -0.0733 0.3299 0.9412
vn 0.2532 0.2532 -0.9337
vn 0.6315 0.6315 -0.4498
vn 0.1451 -0.8838 0.4448
vn 0.1451 0.8838 -0.4448
vn 0.0733 0.3299 -0.9412
vn -0.3299 0.0733 -0.9412
vn 0.1451 0.8838 0.4448
vn 0.2532 0.2532 0.9337
vn 0.6315 0.6315 0.4498
vn -0.1451 -0.8838 0.4448
vn -0.2532 -0.2532 0.9337
vn -0.6315 -0.6315 0.4498
vn 0.2532 -0.2532 0.9337
vn 0.0733 -0.3299 0.9412
vn -0.0733 0.3299 -0.9412
vn -0.8838 -0.1451 0.4448
vn -0.3299 -0.0733 0.9412
vn -0.8838 0.1451 0.4448
vn 0.8838 0.1451 0.4448
vn 0.3299 -0.0733 0.9412
vn 0.3299 0.0733 0.9412
vn -0.0733 -0.3299 0.9412
vn -0.6315 0.6315 0.4498
vn 0.6315 -0.6315 0.4498
vn -0.3299 0.0733 0.9412
vn 0.0733 -0.3299 -0.9412
vn 0.3299 0.0733 -0.9412
vn 0.0733 0.3299 0.9412
s 1
f 2/1/1 41/2/2 16/3/3
f 3/4/4 38/5/5 17/6/6
f 4/7/7 39/8/8 18/9/9
f 5/10/10 41/2/2 12/11/11
f 28/12/12 22/13/13 3/4/4
f 1/14/14 14/15/15 5/16/10
f 6/17/16 38/5/5 13/18/17
f 7/19/18 45/20/19 33/21/20
f 1/22/14 40/23/21 15/24/22
f 16/25/3 32/26/23 2/27/1
f 35/28/24 40/23/21 11/29/25
f 10/30/26 12/11/11 22/13/13
f 9/31/27 46/32/28 42/33/29
f 2/27/1 8/34/30 6/35/16
f 8/36/30 44/37/31 29/38/32
f 12/11/11 1/22/14 5/10/10
f 8/34/30 17/39/6 6/35/16
f 32/40/23 47/41/33 34/42/34
f 35/28/24 30/43/35 4/7/7
f 24/44/36 44/37/31 25/45/37
f 3/46/4 48/47/38 28/48/12
f 48/47/38 18/49/9 28/48/12
f 37/50/39 20/51/40 14/52/15
f 17/39/6 24/53/36 3/46/4
f 15/54/22 37/55/39 1/14/14
f 37/50/39 46/32/28 27/56/41
f 7/57/18 35/58/24 4/59/7
f 32/40/23 21/60/42 8/36/30
f 18/61/9 7/57/18 4/59/7
f 48/62/38 45/20/19 36/63/43
f 25/45/37 48/62/38 24/44/36
f 14/52/15 47/41/33 43/64/44
f 9/65/27 15/66/22 35/58/24
f 33/21/20 9/31/27 7/19/18
f 28/12/12 39/8/8 10/30/26
f 13/18/17 2/1/1 6/17/16
f 27/56/41 33/21/20 26/67/45
f 14/15/15 16/68/3 5/16/10
f 2/1/1 31/69/46 41/2/2
f 3/4/4 22/13/13 38/5/5
f 4/7/7 30/43/35 39/8/8
f 5/10/10 16/3/3 41/2/2
f 28/12/12 10/30/26 22/13/13
f 1/14/14 37/55/39 14/15/15
f 6/17/16 17/6/6 38/5/5
f 7/19/18 36/63/43 45/20/19
f 1/22/14 23/70/47 40/23/21
f 16/25/3 43/71/44 32/26/23
f 35/28/24 15/24/22 40/23/21
f 31/69/46 13/18/17 22/13/13
f 38/5/5 22/13/13 13/18/17
f 10/30/26 39/8/8 30/43/35
f 30/43/35 11/29/25 23/70/47
f 40/23/21 23/70/47 11/29/25
f 12/11/11 41/2/2 31/69/46
f 31/69/46 22/13/13 12/11/11
f 10/30/26 30/43/35 23/70/47
f 23/70/47 12/11/11 10/30/26
f 9/31/27 19/72/48 46/32/28
f 2/27/1 32/26/23 8/34/30
f 8/36/30 21/60/42 44/37/31
f 12/11/11 23/70/47 1/22/14
f 8/34/30 29/73/32 17/39/6
f 32/40/23 43/64/44 47/41/33
f 35/28/24 11/29/25 30/43/35
f 24/44/36 29/38/32 44/37/31
f 3/46/4 24/53/36 48/47/38
f 48/47/38 36/74/43 18/49/9
f 37/50/39 27/56/41 20/51/40
f 17/39/6 29/73/32 24/53/36
f 15/54/22 42/75/29 37/55/39
f 37/50/39 42/33/29 46/32/28
f 7/57/18 9/65/27 35/58/24
f 32/40/23 34/42/34 21/60/42
f 18/61/9 36/76/43 7/57/18
f 48/62/38 26/67/45 45/20/19
f 25/45/37 26/67/45 48/62/38
f 14/52/15 20/51/40 47/41/33
f 9/65/27 42/77/29 15/66/22
f 33/21/20 19/72/48 9/31/27
f 28/12/12 18/9/9 39/8/8
f 13/18/17 31/69/46 2/1/1
f 26/67/45 25/45/37 20/51/40
f 44/37/31 21/60/42 25/45/37
f 34/42/34 47/41/33 20/51/40
f 20/51/40 27/56/41 26/67/45
f 46/32/28 19/72/48 27/56/41
f 33/21/20 45/20/19 26/67/45
f 25/45/37 21/60/42 34/42/34
f 34/42/34 20/51/40 25/45/37
f 19/72/48 33/21/20 27/56/41
f 14/15/15 43/78/44 16/68/3
